<mxfile host="app.diagrams.net" modified="2022-01-22T21:20:57.291Z" agent="5.0 (Windows)" etag="u9DaRdZRX7ZYe4ZPz_bB" version="16.4.5" type="github">
  <diagram id="C5RBs43oDa-KdzZeNtuy" name="Page-1">
    <mxGraphModel dx="1278" dy="548" grid="1" gridSize="10" guides="1" tooltips="1" connect="1" arrows="1" fold="1" page="1" pageScale="1" pageWidth="827" pageHeight="1169" math="0" shadow="0">
      <root>
        <mxCell id="WIyWlLk6GJQsqaUBKTNV-0" />
        <mxCell id="WIyWlLk6GJQsqaUBKTNV-1" parent="WIyWlLk6GJQsqaUBKTNV-0" />
        <mxCell id="njkCIRznCmRYB8Jg0wXI-0" value="simulation_gmapping" style="rounded=1;whiteSpace=wrap;html=1;" vertex="1" parent="WIyWlLk6GJQsqaUBKTNV-1">
          <mxGeometry x="100" y="80" width="120" height="40" as="geometry" />
        </mxCell>
        <mxCell id="njkCIRznCmRYB8Jg0wXI-8" style="edgeStyle=orthogonalEdgeStyle;rounded=0;orthogonalLoop=1;jettySize=auto;html=1;entryX=0.442;entryY=-0.1;entryDx=0;entryDy=0;entryPerimeter=0;" edge="1" parent="WIyWlLk6GJQsqaUBKTNV-1" source="njkCIRznCmRYB8Jg0wXI-2" target="njkCIRznCmRYB8Jg0wXI-0">
          <mxGeometry relative="1" as="geometry" />
        </mxCell>
        <mxCell id="njkCIRznCmRYB8Jg0wXI-9" style="edgeStyle=orthogonalEdgeStyle;rounded=0;orthogonalLoop=1;jettySize=auto;html=1;exitX=1;exitY=0.5;exitDx=0;exitDy=0;entryX=0.5;entryY=0;entryDx=0;entryDy=0;" edge="1" parent="WIyWlLk6GJQsqaUBKTNV-1" source="njkCIRznCmRYB8Jg0wXI-2" target="njkCIRznCmRYB8Jg0wXI-6">
          <mxGeometry relative="1" as="geometry" />
        </mxCell>
        <mxCell id="njkCIRznCmRYB8Jg0wXI-10" style="edgeStyle=orthogonalEdgeStyle;rounded=0;orthogonalLoop=1;jettySize=auto;html=1;entryX=0.5;entryY=0;entryDx=0;entryDy=0;" edge="1" parent="WIyWlLk6GJQsqaUBKTNV-1" source="njkCIRznCmRYB8Jg0wXI-2" target="njkCIRznCmRYB8Jg0wXI-5">
          <mxGeometry relative="1" as="geometry" />
        </mxCell>
        <mxCell id="njkCIRznCmRYB8Jg0wXI-2" value="Launch" style="ellipse;whiteSpace=wrap;html=1;" vertex="1" parent="WIyWlLk6GJQsqaUBKTNV-1">
          <mxGeometry x="360" width="90" height="50" as="geometry" />
        </mxCell>
        <mxCell id="njkCIRznCmRYB8Jg0wXI-11" style="edgeStyle=orthogonalEdgeStyle;rounded=0;orthogonalLoop=1;jettySize=auto;html=1;entryX=0.5;entryY=0;entryDx=0;entryDy=0;" edge="1" parent="WIyWlLk6GJQsqaUBKTNV-1" source="njkCIRznCmRYB8Jg0wXI-5">
          <mxGeometry relative="1" as="geometry">
            <mxPoint x="405" y="150" as="targetPoint" />
          </mxGeometry>
        </mxCell>
        <mxCell id="njkCIRznCmRYB8Jg0wXI-5" value="launcher" style="rounded=1;whiteSpace=wrap;html=1;" vertex="1" parent="WIyWlLk6GJQsqaUBKTNV-1">
          <mxGeometry x="345" y="80" width="120" height="40" as="geometry" />
        </mxCell>
        <mxCell id="njkCIRznCmRYB8Jg0wXI-6" value="move_base" style="rounded=1;whiteSpace=wrap;html=1;" vertex="1" parent="WIyWlLk6GJQsqaUBKTNV-1">
          <mxGeometry x="610" y="80" width="110" height="40" as="geometry" />
        </mxCell>
        <mxCell id="njkCIRznCmRYB8Jg0wXI-15" style="edgeStyle=orthogonalEdgeStyle;rounded=0;orthogonalLoop=1;jettySize=auto;html=1;exitX=0;exitY=0.5;exitDx=0;exitDy=0;entryX=0.5;entryY=0;entryDx=0;entryDy=0;" edge="1" parent="WIyWlLk6GJQsqaUBKTNV-1" source="njkCIRznCmRYB8Jg0wXI-12" target="njkCIRznCmRYB8Jg0wXI-14">
          <mxGeometry relative="1" as="geometry" />
        </mxCell>
        <mxCell id="njkCIRznCmRYB8Jg0wXI-18" value="mode 1" style="edgeLabel;html=1;align=center;verticalAlign=middle;resizable=0;points=[];" vertex="1" connectable="0" parent="njkCIRznCmRYB8Jg0wXI-15">
          <mxGeometry x="-0.1862" relative="1" as="geometry">
            <mxPoint as="offset" />
          </mxGeometry>
        </mxCell>
        <mxCell id="njkCIRznCmRYB8Jg0wXI-16" value="mode 2" style="edgeStyle=orthogonalEdgeStyle;rounded=0;orthogonalLoop=1;jettySize=auto;html=1;exitX=0.5;exitY=1;exitDx=0;exitDy=0;entryX=0.5;entryY=0;entryDx=0;entryDy=0;" edge="1" parent="WIyWlLk6GJQsqaUBKTNV-1" source="njkCIRznCmRYB8Jg0wXI-12" target="njkCIRznCmRYB8Jg0wXI-20">
          <mxGeometry relative="1" as="geometry">
            <mxPoint x="415" y="290" as="targetPoint" />
            <Array as="points">
              <mxPoint x="413" y="250" />
              <mxPoint x="560" y="250" />
            </Array>
          </mxGeometry>
        </mxCell>
        <mxCell id="njkCIRznCmRYB8Jg0wXI-17" style="edgeStyle=orthogonalEdgeStyle;rounded=0;orthogonalLoop=1;jettySize=auto;html=1;exitX=1;exitY=0.5;exitDx=0;exitDy=0;entryX=1;entryY=0.5;entryDx=0;entryDy=0;" edge="1" parent="WIyWlLk6GJQsqaUBKTNV-1" source="njkCIRznCmRYB8Jg0wXI-12" target="njkCIRznCmRYB8Jg0wXI-20">
          <mxGeometry relative="1" as="geometry">
            <mxPoint x="465" y="305" as="targetPoint" />
          </mxGeometry>
        </mxCell>
        <mxCell id="njkCIRznCmRYB8Jg0wXI-19" value="mode 3" style="edgeLabel;html=1;align=center;verticalAlign=middle;resizable=0;points=[];" vertex="1" connectable="0" parent="njkCIRznCmRYB8Jg0wXI-17">
          <mxGeometry x="-0.0987" y="2" relative="1" as="geometry">
            <mxPoint as="offset" />
          </mxGeometry>
        </mxCell>
        <mxCell id="njkCIRznCmRYB8Jg0wXI-12" value="user interface with choices " style="rhombus;whiteSpace=wrap;html=1;" vertex="1" parent="WIyWlLk6GJQsqaUBKTNV-1">
          <mxGeometry x="325" y="150" width="175" height="70" as="geometry" />
        </mxCell>
        <mxCell id="njkCIRznCmRYB8Jg0wXI-14" value="automatic reach of the position" style="rounded=1;whiteSpace=wrap;html=1;" vertex="1" parent="WIyWlLk6GJQsqaUBKTNV-1">
          <mxGeometry x="170" y="240" width="130" height="40" as="geometry" />
        </mxCell>
        <mxCell id="njkCIRznCmRYB8Jg0wXI-23" value="1" style="edgeStyle=orthogonalEdgeStyle;rounded=0;orthogonalLoop=1;jettySize=auto;html=1;" edge="1" parent="WIyWlLk6GJQsqaUBKTNV-1" source="njkCIRznCmRYB8Jg0wXI-20" target="njkCIRznCmRYB8Jg0wXI-22">
          <mxGeometry relative="1" as="geometry">
            <Array as="points">
              <mxPoint x="560" y="340" />
              <mxPoint x="560" y="340" />
            </Array>
          </mxGeometry>
        </mxCell>
        <mxCell id="njkCIRznCmRYB8Jg0wXI-25" value="" style="edgeStyle=orthogonalEdgeStyle;rounded=0;orthogonalLoop=1;jettySize=auto;html=1;" edge="1" parent="WIyWlLk6GJQsqaUBKTNV-1" source="njkCIRznCmRYB8Jg0wXI-20" target="njkCIRznCmRYB8Jg0wXI-24">
          <mxGeometry relative="1" as="geometry" />
        </mxCell>
        <mxCell id="njkCIRznCmRYB8Jg0wXI-26" value="2" style="edgeLabel;html=1;align=center;verticalAlign=middle;resizable=0;points=[];" vertex="1" connectable="0" parent="njkCIRznCmRYB8Jg0wXI-25">
          <mxGeometry x="0.2533" y="2" relative="1" as="geometry">
            <mxPoint as="offset" />
          </mxGeometry>
        </mxCell>
        <mxCell id="njkCIRznCmRYB8Jg0wXI-20" value="usrInt" style="rhombus;whiteSpace=wrap;html=1;" vertex="1" parent="WIyWlLk6GJQsqaUBKTNV-1">
          <mxGeometry x="490" y="270" width="140" height="60" as="geometry" />
        </mxCell>
        <mxCell id="njkCIRznCmRYB8Jg0wXI-22" value="driving experience " style="ellipse;whiteSpace=wrap;html=1;" vertex="1" parent="WIyWlLk6GJQsqaUBKTNV-1">
          <mxGeometry x="500" y="380" width="120" height="40" as="geometry" />
        </mxCell>
        <mxCell id="njkCIRznCmRYB8Jg0wXI-24" value="driving experience with collision handler" style="ellipse;whiteSpace=wrap;html=1;" vertex="1" parent="WIyWlLk6GJQsqaUBKTNV-1">
          <mxGeometry x="330" y="360" width="130" height="60" as="geometry" />
        </mxCell>
      </root>
    </mxGraphModel>
  </diagram>
</mxfile>
